<svg width="50" height="50" viewBox="0 0 50 50" fill="none" xmlns="http://www.w3.org/2000/svg">
<rect width="50" height="50" rx="12" fill="#EF7C00" fill-opacity="0.2"/>
<g clip-path="url(#clip0_151_28)">
<path d="M21.5742 34.0859C18.7953 32.7502 18.3049 29.717 20.2126 26.5377C18.524 24.1196 19.1337 21.3688 21.5938 20.7294C21.5938 20.9728 21.5938 21.1935 21.5938 21.4126C21.5479 21.6716 21.5569 21.9372 21.6202 22.1925C21.6834 22.4478 21.7996 22.6873 21.9612 22.8956C22.1228 23.1038 22.3264 23.2764 22.559 23.4022C22.7915 23.528 23.0479 23.6043 23.3119 23.6262C24.3835 23.8145 25.4801 23.8145 26.5518 23.6262C27.9242 23.2786 29.2649 22.8177 30.5599 22.2484C30.9657 22.05 31.3254 21.7698 31.6159 21.4256C31.7397 21.3293 31.8413 21.2079 31.9138 21.0694C31.9864 20.9309 32.0283 20.7786 32.0367 20.6227C32.045 20.4668 32.0197 20.3109 31.9623 20.1656C31.905 20.0202 31.817 19.8887 31.7042 19.7799C31.1177 18.9797 30.3253 18.3507 29.4099 17.959C28.4945 17.5672 27.4898 17.4271 26.5011 17.5534C24.7023 17.6524 22.944 18.1219 21.3379 18.9322C19.7318 19.7425 18.3131 20.8757 17.1721 22.2598C16.4243 23.094 15.9331 24.1236 15.7565 25.2264C15.6366 26.0013 15.7225 26.7938 16.0058 27.5256C16.2891 28.2574 16.7598 28.9032 17.3715 29.3989C17.5425 29.5382 17.6797 29.714 17.7728 29.9133C17.8659 30.1125 17.9126 30.33 17.9093 30.5496C18.0188 31.6706 18.4656 32.7329 19.1915 33.5983C19.9175 34.4638 20.889 35.0923 21.9796 35.4021C22.06 35.4117 22.1412 35.4117 22.2216 35.4021C22.4422 34.4575 22.6466 33.5471 22.8754 32.6431C23.0045 32.1221 23.2743 31.9566 23.8644 32.1059C24.9817 32.4127 26.1538 32.4681 27.2954 32.2682C28.437 32.0683 29.5193 31.6181 30.4635 30.9504C32.0333 29.8103 33.5262 28.5694 34.9326 27.2356C36.1733 26.0995 37.2914 24.8402 38.488 23.6652C38.9178 23.2567 39.3959 22.9014 39.9118 22.6071C39.9412 23.7334 40.3057 24.7688 39.2579 25.7815C38.066 27.0647 36.9757 28.4374 35.9968 29.8874C34.4187 32.1646 32.5702 34.2451 30.4913 36.0837C28.6714 37.6642 26.4097 38.6567 24.0075 38.9289C21.6052 39.2012 19.1764 38.7403 17.0446 37.6076C15.6918 36.9226 14.5328 35.9131 13.6727 34.6706C12.8126 33.4282 12.2787 31.9921 12.1194 30.4928C11.0928 23.4364 16.3548 14.2637 23.9543 11.5843C25.792 10.8889 27.812 10.8283 29.6886 11.4122C31.3905 11.9329 32.8457 13.0461 33.7867 14.5472C34.7277 16.0482 35.091 17.8361 34.81 19.582C34.7492 21.0796 34.248 22.5268 33.3685 23.7449C32.4889 24.9631 31.2693 25.899 29.8603 26.4371C28.8386 26.8818 27.8382 27.3752 26.828 27.8474C24.1308 29.0971 21.8259 30.6989 21.5742 34.0859Z" fill="#EF7C00"/>
</g>
<defs>
<clipPath id="clip0_151_28">
<rect width="28" height="28" fill="white" transform="translate(12 11)"/>
</clipPath>
</defs>
</svg>
